<svg width="1400" height="900" viewBox="0 0 1400 900" fill="none" xmlns="http://www.w3.org/2000/svg">
  <rect width="1400" height="900" fill="#111111"/>
  <defs>
    <pattern id="grid" width="48" height="48" patternUnits="userSpaceOnUse">
      <path d="M48 0H0V48" stroke="#c4d931" stroke-opacity="0.12" stroke-width="1"/>
    </pattern>
    <filter id="glow" x="-50%" y="-50%" width="200%" height="200%">
      <feGaussianBlur stdDeviation="7" result="coloredBlur"/>
      <feMerge><feMergeNode in="coloredBlur"/><feMergeNode in="SourceGraphic"/></feMerge>
    </filter>
  </defs>
  <rect width="1400" height="900" fill="url(#grid)"/>
  <path d="M104 744 C274 650 424 724 592 640 C746 563 851 536 1050 579 C1163 604 1244 579 1322 516" stroke="#ffffff" stroke-opacity="0.22" stroke-width="3" stroke-dasharray="12 14"/>
  <path d="M88 210 C250 144 423 167 602 118 C758 75 966 61 1266 112" stroke="#ffffff" stroke-opacity="0.18" stroke-width="2" stroke-dasharray="10 12"/>
  <rect x="410" y="245" width="510" height="318" rx="8" fill="#c4d931" fill-opacity="0.12" stroke="#c4d931" stroke-width="5" filter="url(#glow)"/>
  <rect x="463" y="296" width="404" height="215" rx="4" stroke="#c4d931" stroke-width="3" stroke-dasharray="18 12"/>
  <path d="M205 705 H1095 C1176 705 1242 639 1242 558 V195" stroke="#c4d931" stroke-width="12" stroke-linecap="round" stroke-linejoin="round"/>
  <path d="M205 705 H1095 C1176 705 1242 639 1242 558 V195" stroke="#111111" stroke-width="4" stroke-dasharray="24 18" stroke-linecap="round" stroke-linejoin="round"/>
  <circle cx="205" cy="705" r="26" fill="#c4d931"/><circle cx="1242" cy="195" r="26" fill="#c4d931"/>
  <rect x="109" y="637" width="190" height="56" rx="4" fill="#f5f5f0"/><text x="134" y="673" font-family="Arial, sans-serif" font-size="24" font-weight="700" fill="#111111">ACCESS</text>
  <rect x="1110" y="116" width="210" height="56" rx="4" fill="#f5f5f0"/><text x="1136" y="152" font-family="Arial, sans-serif" font-size="24" font-weight="700" fill="#111111">SPOIL AREA</text>
  <rect x="488" y="376" width="352" height="56" rx="4" fill="#c4d931"/><text x="525" y="413" font-family="Arial, sans-serif" font-size="25" font-weight="800" fill="#111111">EXCAVATION ZONE</text>
  <path d="M332 244 L210 337 L267 432 L391 341 Z" fill="#ffffff" fill-opacity="0.09" stroke="#ffffff" stroke-opacity="0.32" stroke-width="3"/>
  <rect x="92" y="99" width="302" height="98" rx="6" fill="#f5f5f0"/><text x="122" y="140" font-family="Arial, sans-serif" font-size="25" font-weight="800" fill="#111111">PLAN BEFORE DIGGING</text><text x="122" y="173" font-family="Arial, sans-serif" font-size="20" fill="#333333">Access • utilities • grade • spoil</text>
  <g opacity="0.95"><circle cx="382" cy="602" r="13" fill="#c4d931"/><text x="408" y="610" font-family="Arial, sans-serif" font-size="22" font-weight="700" fill="#ffffff">Utility locate</text></g>
  <g opacity="0.95"><circle cx="975" cy="394" r="13" fill="#c4d931"/><text x="1001" y="402" font-family="Arial, sans-serif" font-size="22" font-weight="700" fill="#ffffff">Drainage path</text></g>
  <g opacity="0.95"><circle cx="648" cy="196" r="13" fill="#c4d931"/><text x="674" y="204" font-family="Arial, sans-serif" font-size="22" font-weight="700" fill="#ffffff">Keep-out zone</text></g>
</svg>
